<svg width="64" height="64" viewBox="0 0 64 64" fill="none" xmlns="http://www.w3.org/2000/svg">
<path fill-rule="evenodd" clip-rule="evenodd" d="M53.8922 9.2512C47.9621 3.31411 40.0755 0.0430327 31.6736 0.0395508C14.3607 0.0395508 0.27043 14.1294 0.263466 31.447C0.261145 36.9828 1.70731 42.3868 4.4561 47.1501L0 63.4262L16.651 59.0583C21.239 61.561 26.4043 62.8799 31.6608 62.8815H31.674C48.985 62.8815 63.0768 48.7905 63.0833 31.4721C63.0868 23.0791 59.8227 15.1879 53.8922 9.2512ZM31.6736 57.5769H31.6628C26.9784 57.575 22.3842 56.3161 18.3753 53.9379L17.4224 53.3719L7.54148 55.964L10.1788 46.3303L9.5579 45.3426C6.94452 41.1859 5.56452 36.3816 5.56684 31.4489C5.57225 17.055 17.2839 5.34447 31.684 5.34447C38.6572 5.34679 45.2121 8.06579 50.141 13.0005C55.0699 17.9351 57.7827 24.4943 57.7803 31.4702C57.7742 45.8653 46.0633 57.5769 31.6736 57.5769ZM45.9936 38.0243C45.209 37.6313 41.3503 35.7332 40.6307 35.4709C39.9118 35.209 39.388 35.0786 38.8653 35.864C38.3419 36.6494 36.8381 38.4174 36.38 38.9409C35.9219 39.4647 35.4646 39.5305 34.6797 39.1374C33.8947 38.7447 31.366 37.9156 28.3681 35.2419C26.0352 33.1609 24.4602 30.5908 24.0021 29.8054C23.5448 29.0193 23.9983 28.6355 24.3464 28.2037C25.196 27.1487 26.0468 26.0426 26.3083 25.5192C26.5702 24.9953 26.4391 24.5369 26.2426 24.1442C26.0468 23.7515 24.4772 19.8885 23.8234 18.3166C23.1858 16.7869 22.5393 16.9935 22.0573 16.9695C21.6 16.9467 21.0765 16.942 20.5531 16.942C20.03 16.942 19.1796 17.1382 18.46 17.9243C17.7408 18.7101 15.7136 20.6085 15.7136 24.4715C15.7136 28.3345 18.5258 32.0664 18.9181 32.5902C19.3104 33.114 24.4524 41.0412 32.3251 44.4404C34.1976 45.2497 35.6592 45.7322 36.7994 46.0939C38.6796 46.6912 40.39 46.6069 41.7426 46.405C43.2506 46.1794 46.3855 44.5061 47.0401 42.6731C47.694 40.8397 47.694 39.2685 47.4974 38.9409C47.3017 38.6136 46.7782 38.4174 45.9936 38.0243Z" fill="#FFFEFF"/>
</svg>
