<svg width="65" height="41" viewBox="0 0 65 41" fill="none" xmlns="http://www.w3.org/2000/svg">
<path d="M26.8594 18.6408C28.1823 17.9753 29.1824 17.2342 29.8678 16.4333C31.0871 14.9908 31.6887 13.0782 31.6887 10.7074C31.6887 8.40027 31.0871 6.42788 29.8837 4.77426C27.8755 2.08065 24.4766 0.701972 19.6711 0.630249H0.632568V39.4923H18.3841C20.3844 39.4923 22.2372 39.321 23.9506 38.9703C25.664 38.6157 27.1463 37.9662 28.4014 37.0179C29.5171 36.193 30.4495 35.169 31.1907 33.9616C32.3621 32.1367 32.9479 30.0687 32.9479 27.7655C32.9479 25.5342 32.4339 23.6335 31.4138 22.0715C30.3818 20.5095 28.8676 19.366 26.8594 18.6408ZM8.48627 7.38021H17.0612C18.9459 7.38021 20.4999 7.58342 21.7192 7.98587C23.1298 8.57161 23.835 9.76301 23.835 11.58C23.835 13.2097 23.2971 14.3493 22.2332 14.9908C21.1614 15.6324 19.7707 15.9551 18.0653 15.9551H8.48627V7.38021ZM22.0459 32.065C21.0976 32.5232 19.7628 32.7503 18.0534 32.7503H8.48627V22.3863H18.1848C19.8743 22.3983 21.1893 22.6214 22.1296 23.0398C23.8032 23.7969 24.636 25.1835 24.636 27.2117C24.636 29.6025 23.7753 31.2123 22.0459 32.065Z" fill="#FFFEFF"/>
<path d="M58.2543 2.44318H41.3715V7.28052H58.2543V2.44318Z" fill="#FFFEFF"/>
<path d="M64.1198 21.5336C63.7692 19.2822 62.9961 17.3019 61.7928 15.5925C60.4739 13.6559 58.8003 12.2374 56.7642 11.3409C54.736 10.4404 52.4528 9.99009 49.9106 9.99408C45.6431 9.99408 42.1765 11.3289 39.4948 13.9787C36.8211 16.6364 35.4823 20.4577 35.4823 25.4385C35.4823 30.75 36.9606 34.5872 39.9331 36.9421C42.8937 39.301 46.3125 40.4765 50.1935 40.4765C54.8914 40.4765 58.5453 39.0779 61.1552 36.2886C62.8248 34.5274 63.7692 32.7941 63.9764 31.0927H56.1984C55.7481 31.9334 55.2261 32.5909 54.6284 33.069C53.5446 33.9457 52.1341 34.384 50.4047 34.384C48.7591 34.384 47.3645 34.0214 46.2009 33.3001C44.2804 32.1446 43.2762 30.1204 43.1487 27.2395H64.3748C64.4067 24.7571 64.327 22.8485 64.1198 21.5336ZM43.34 22.2787C43.6189 20.4099 44.2963 18.9276 45.3721 17.8318C46.448 16.74 47.9701 16.1902 49.9186 16.1862C51.7157 16.1862 53.2179 16.7002 54.4411 17.7322C55.6485 18.7722 56.3299 20.2824 56.4693 22.2787H43.34Z" fill="#FFFEFF"/>
</svg>
