<svg width="76" height="91" viewBox="0 0 76 91" fill="none" xmlns="http://www.w3.org/2000/svg">
<path d="M37.2963 43.5377C43.2776 43.5377 48.4569 41.3925 52.6887 37.1599C56.9206 32.9281 59.0658 27.7501 59.0658 21.7682C59.0658 15.7883 56.9206 10.6096 52.688 6.3764C48.4555 2.14523 43.2769 0 37.2963 0C31.3143 0 26.1364 2.14523 21.9045 6.37709C17.6727 10.6089 15.5267 15.7876 15.5267 21.7682C15.5267 27.7501 17.6727 32.9288 21.9052 37.1606C26.1377 41.3918 31.3164 43.5377 37.2963 43.5377Z" fill="white"/>
<path d="M75.3867 69.4999C75.2647 67.7388 75.0178 65.8176 74.6544 63.7889C74.2876 61.7451 73.8152 59.8129 73.2498 58.0469C72.6657 56.2217 71.8713 54.4192 70.8894 52.6918C69.8702 50.8989 68.6731 49.3378 67.3299 48.0531C65.9252 46.7091 64.2054 45.6286 62.2167 44.8404C60.2349 44.0564 58.0387 43.6592 55.6893 43.6592C54.7667 43.6592 53.8744 44.0378 52.1512 45.1597C51.0906 45.8513 49.8501 46.6512 48.4654 47.5359C47.2815 48.2903 45.6775 48.9971 43.6964 49.637C41.7636 50.2625 39.8011 50.5797 37.8641 50.5797C35.9271 50.5797 33.9653 50.2625 32.0304 49.637C30.0513 48.9978 28.4474 48.291 27.2648 47.5366C25.8932 46.6602 24.652 45.8603 23.5756 45.159C21.8545 44.0371 20.9615 43.6585 20.0388 43.6585C17.6888 43.6585 15.4932 44.0564 13.5121 44.8411C11.5248 45.6279 9.80433 46.7084 8.39831 48.0538C7.05573 49.3391 5.85795 50.8996 4.84016 52.6918C3.85891 54.4192 3.06453 56.221 2.47978 58.0476C1.91502 59.8136 1.44267 61.7451 1.07583 63.7889C0.712425 65.8149 0.465561 67.7367 0.343508 69.502C0.223523 71.2314 0.162842 73.0264 0.162842 74.8392C0.162842 79.5572 1.66264 83.3767 4.62019 86.1936C7.54118 88.9732 11.4062 90.3834 16.1063 90.3834H59.626C64.3261 90.3834 68.1898 88.9739 71.1114 86.1936C74.0697 83.3788 75.5695 79.5586 75.5695 74.8385C75.5688 73.0174 75.5074 71.2211 75.3867 69.4999Z" fill="white"/>
</svg>
