<svg width="59" height="56" viewBox="0 0 59 56" fill="none" xmlns="http://www.w3.org/2000/svg">
<path d="M29.1907 0.386047C13.1811 0.386047 0.213989 13.1358 0.213989 28.8605C0.213989 41.4437 8.51583 52.1144 20.0268 55.8765C21.4757 56.1446 22.0069 55.2632 22.0069 54.5074C22.0069 53.8313 21.9828 52.0395 21.9707 49.6658C13.9103 51.3827 12.2104 45.8457 12.2104 45.8457C10.8919 42.5593 8.9867 41.6803 8.9867 41.6803C6.36189 39.9152 9.18954 39.9514 9.18954 39.9514C12.0993 40.1494 13.6278 42.8853 13.6278 42.8853C16.2116 47.239 20.4108 45.981 22.0673 45.2541C22.3281 43.4117 23.0742 42.1585 23.9025 41.4461C17.4672 40.7338 10.7036 38.2852 10.7036 27.3755C10.7036 24.2677 11.8264 21.7274 13.6858 19.7353C13.3598 19.0157 12.3818 16.1204 13.9393 12.1989C13.9393 12.1989 16.3661 11.4358 21.9079 15.1183C24.2261 14.4857 26.6891 14.1717 29.1521 14.1572C31.6151 14.1717 34.0782 14.4857 36.3963 15.1183C41.9019 11.4358 44.3287 12.1989 44.3287 12.1989C45.8862 16.1204 44.9082 19.0157 44.6184 19.7353C46.4657 21.7274 47.5886 24.2677 47.5886 27.3755C47.5886 38.3142 40.8152 40.7217 34.3679 41.422C35.3821 42.2768 36.3238 44.0226 36.3238 46.6909C36.3238 50.5013 36.2876 53.5632 36.2876 54.4881C36.2876 55.2342 36.7947 56.1252 38.2798 55.8403C49.8729 52.1023 58.1675 41.4244 58.1675 28.8605C58.1675 13.1358 45.1931 0.386047 29.1907 0.386047Z" fill="#FFFEFF"/>
</svg>
