<svg width="62" height="62" viewBox="0 0 62 62" fill="none" xmlns="http://www.w3.org/2000/svg">
<path d="M61.5431 18.3823C61.4005 15.1484 60.8775 12.9251 60.1284 10.9986C59.3556 8.95369 58.1666 7.12287 56.6089 5.60091C55.0869 4.05526 53.244 2.85422 51.2228 2.09347C49.2852 1.34433 47.0735 0.821375 43.8396 0.678792C40.5816 0.524135 39.5473 0.488373 31.284 0.488373C23.0207 0.488373 21.9864 0.524135 18.7404 0.666717C15.5066 0.8093 13.2833 1.33272 11.3573 2.0814C9.31188 2.85422 7.48106 4.04318 5.95909 5.60091C4.41344 7.12287 3.21287 8.96576 2.45166 10.987C1.70252 12.9251 1.17956 15.1363 1.03698 18.3702C0.882319 21.6282 0.846558 22.6625 0.846558 30.9258C0.846558 39.1891 0.882319 40.2234 1.0249 43.4694C1.16748 46.7032 1.69091 48.9265 2.44005 50.853C3.21287 52.8979 4.41344 54.7287 5.95909 56.2507C7.48106 57.7963 9.32395 58.9974 11.3452 59.7581C13.2833 60.5073 15.4945 61.0302 18.7288 61.1728C21.9743 61.3159 23.0091 61.3512 31.2724 61.3512C39.5357 61.3512 40.57 61.3159 43.8159 61.1728C47.0498 61.0302 49.2731 60.5073 51.1991 59.7581C55.2894 58.1767 58.5233 54.9428 60.1047 50.853C60.8534 48.9149 61.3768 46.7032 61.5194 43.4694C61.662 40.2234 61.6977 39.1891 61.6977 30.9258C61.6977 22.6625 61.6857 21.6282 61.5431 18.3823ZM56.0622 43.2316C55.9313 46.204 55.432 47.8091 55.0159 48.8791C53.9932 51.5306 51.8888 53.635 49.2373 54.6577C48.1672 55.0738 46.5505 55.5731 43.5897 55.7036C40.3795 55.8466 39.4168 55.8819 31.2961 55.8819C23.1754 55.8819 22.2005 55.8466 19.0019 55.7036C16.0295 55.5731 14.4244 55.0738 13.3543 54.6577C12.0349 54.17 10.8338 53.3972 9.85898 52.3866C8.84837 51.3996 8.07554 50.2107 7.58788 48.8912C7.17174 47.8211 6.67247 46.204 6.54196 43.2436C6.39892 40.0334 6.36362 39.0702 6.36362 30.9495C6.36362 22.8288 6.39892 21.8539 6.54196 18.6558C6.67247 15.6834 7.17174 14.0783 7.58788 13.0082C8.07554 11.6883 8.84837 10.4877 9.87106 9.51241C10.8575 8.50179 12.0465 7.72897 13.3664 7.24177C14.4365 6.82563 16.0537 6.32636 19.014 6.19539C22.2242 6.05281 23.1874 6.01705 31.3077 6.01705C39.4405 6.01705 40.4032 6.05281 43.6018 6.19539C46.5742 6.32636 48.1793 6.82563 49.2494 7.24177C50.5689 7.72897 51.7699 8.50179 52.7448 9.51241C53.7554 10.4993 54.5282 11.6883 55.0159 13.0082C55.432 14.0783 55.9313 15.695 56.0622 18.6558C56.2048 21.866 56.2406 22.8288 56.2406 30.9495C56.2406 39.0702 56.2048 40.0214 56.0622 43.2316Z" fill="#FFFEFF"/>
<path d="M31.2837 15.2909C22.6521 15.2909 15.6488 22.2937 15.6488 30.9258C15.6488 39.5578 22.6521 46.5606 31.2837 46.5606C39.9157 46.5606 46.9185 39.5578 46.9185 30.9258C46.9185 22.2937 39.9157 15.2909 31.2837 15.2909ZM31.2837 41.0677C25.6839 41.0677 21.1417 36.526 21.1417 30.9258C21.1417 25.3256 25.6839 20.7839 31.2837 20.7839C36.8839 20.7839 41.4256 25.3256 41.4256 30.9258C41.4256 36.526 36.8839 41.0677 31.2837 41.0677Z" fill="#FFFEFF"/>
<path d="M51.1872 14.6728C51.1872 16.6885 49.5529 18.3228 47.5367 18.3228C45.5211 18.3228 43.8867 16.6885 43.8867 14.6728C43.8867 12.6567 45.5211 11.0228 47.5367 11.0228C49.5529 11.0228 51.1872 12.6567 51.1872 14.6728Z" fill="#FFFEFF"/>
</svg>
