<svg width="356" height="63" viewBox="0 0 356 63" fill="none" xmlns="http://www.w3.org/2000/svg">
<path d="M83.6591 23.8855L84.24 22.3761C86.4463 23.4988 89.2727 24.5057 92.8333 24.5057C98.2527 24.5057 100.808 21.6027 100.808 18.6212C100.808 16.8017 99.9956 15.4866 98.447 14.6721C97.285 14.0518 95.1946 13.6652 92.7567 13.3943C90.2012 13.1234 88.0734 12.7741 86.564 12.0007C84.2027 10.8014 83.3508 9.09765 83.3508 6.81296C83.3508 2.98149 87.0665 0 92.6801 0C96.0483 0 98.7963 0.736031 101.003 1.85876L100.461 3.32895C98.4488 2.36128 95.7774 1.58789 92.6801 1.58789C87.7633 1.58789 85.0938 3.94916 85.0938 6.81296C85.0938 8.51667 85.714 9.75522 87.455 10.6444C88.6936 11.2646 90.7074 11.5355 93.0687 11.8064C95.6243 12.1165 97.9463 12.5424 99.2241 13.2392C101.391 14.4012 102.553 16.1423 102.553 18.6194C102.553 22.4508 99.2241 26.0899 92.837 26.0899C88.9663 26.0899 86.1399 25.1988 83.6628 23.8837L83.6591 23.8855Z" fill="white"/>
<path d="M125.503 0.169975V25.6397H123.761V0.169975H125.503Z" fill="white"/>
<path d="M156.353 1.75606H145.359V0.168175H169.087V1.75606H158.094V25.6397H156.353V1.75606Z" fill="white"/>
<path d="M226.102 23.8855L226.683 22.3761C228.889 23.4988 231.716 24.5057 235.276 24.5057C240.696 24.5057 243.251 21.6027 243.251 18.6212C243.251 16.8017 242.438 15.4866 240.89 14.6721C239.728 14.0518 237.639 13.6652 235.2 13.3943C232.644 13.1234 230.516 12.7741 229.007 12.0007C226.646 10.8014 225.794 9.09765 225.794 6.81296C225.794 2.98149 229.509 0 235.123 0C238.491 0 241.239 0.736031 243.445 1.85876L242.904 3.32895C240.89 2.36128 238.22 1.58789 235.123 1.58789C230.206 1.58789 227.537 3.94916 227.537 6.81296C227.537 8.51667 228.157 9.75522 229.898 10.6444C231.136 11.2646 233.148 11.5355 235.512 11.8064C238.067 12.1165 240.389 12.5424 241.667 13.2392C243.834 14.4012 244.996 16.1423 244.996 18.6194C244.996 22.4508 241.667 26.0899 235.28 26.0899C231.409 26.0899 228.583 25.1988 226.106 23.8837L226.102 23.8855Z" fill="white"/>
<path d="M88.7702 49.9325V56.1252H103.13V60.8478H83.3508V35.3781H102.433V40.1399H88.7702V45.7517H100.808V49.9325H88.7702Z" fill="white"/>
<path d="M118.187 47.7655L109.284 35.3781H115.71L122.058 44.1264H122.174C122.174 44.1264 123.181 42.3069 123.683 41.6101L128.174 35.3781H134.485L125.542 47.8421L134.871 60.8478H128.368L121.671 51.6343H121.595C121.595 51.6343 120.162 53.9956 119.854 54.4608L115.286 60.8478H108.899L118.189 47.7636L118.187 47.7655Z" fill="white"/>
<path d="M176.518 49.9325V56.1252H190.879V60.8478H171.099V35.3781H190.182V40.1399H176.518V45.7517H188.557V49.9325H176.518Z" fill="white"/>
<path d="M198.891 35.3781H208.607C215.651 35.3781 218.788 38.8621 218.788 43.6239C218.788 46.4877 217.589 49.1983 214.686 50.5919V50.7077L220.957 60.8496H214.88L209.074 51.6362H204.312V60.8496H198.893V35.38L198.891 35.3781ZM208.22 47.532C211.859 47.532 213.408 46.4092 213.408 43.7379C213.408 41.5709 212.324 40.0222 208.53 40.0222H204.31V47.532H208.22Z" fill="white"/>
<path d="M233.611 35.3781V60.8478H228.192V35.3781H233.611Z" fill="white"/>
<path d="M249.016 49.9325V56.1252H263.378V60.8478H243.599V35.3781H262.681V40.1399H249.016V45.7517H261.054V49.9325H249.016Z" fill="white"/>
<path d="M290.123 35.3781H295.543V60.8478H290.473L276.783 44.1152L276.809 60.8478H271.39V35.3781H276.538L290.106 51.978L290.125 35.3781H290.123Z" fill="white"/>
<path d="M303.748 48.3465C303.748 40.9525 309.322 34.9148 317.684 34.9148C322.987 34.9148 325.658 36.8109 327.476 38.2438L325.347 42.5404C323.295 40.7993 320.895 39.714 317.915 39.714C312.612 39.714 309.438 43.5454 309.438 48.3072C309.438 53.069 312.612 56.5138 318.147 56.5138C322.018 56.5138 324.534 54.5392 326.198 53.069L328.328 57.0182C326.934 58.5668 323.413 61.3148 317.76 61.3148C308.199 61.3148 303.748 55.3145 303.748 48.3465Z" fill="white"/>
<path d="M341.603 49.9325V56.1252H355.965V60.8478H336.185V35.3781H355.268V40.1399H341.603V45.7517H353.641V49.9325H341.603Z" fill="white"/>
<path d="M0.502441 23.5473L8.58197 45.4527L15.4939 38.5388L22.4078 31.6269L0.502441 23.5473Z" fill="white"/>
<path d="M62.1386 23.0431L0 0.123337L4.91497 13.4504L41.087 26.7923L27.6778 40.2016L18.2569 49.6224L22.9197 62.2638L37.8178 47.3657L44.6906 54.2385C47.3321 56.88 51.6137 56.88 54.2534 54.2385C56.8164 51.6754 56.8164 47.5189 54.2534 44.9559L47.2405 37.943L62.1386 23.0449V23.0431Z" fill="white"/>
<path d="M190.685 13.1757H193.668H204.968V11.6663H190.685V1.75599H206.517V0.169975H188.943V13.1757H190.685Z" fill="white"/>
<path d="M193.668 24.0536H190.685H188.943V25.6396H207.292V24.0536H193.668Z" fill="white"/>
<path d="M151.901 35.3781H142.611V40.1007H151.824C156.741 40.1007 157.515 42.3069 157.515 44.3207C157.515 47.2237 155.966 48.7724 152.174 48.7724H142.613V60.8496H148.032V53.069H152.639C159.413 53.069 162.897 49.8559 162.897 44.2049C162.897 39.0956 159.491 35.38 151.903 35.38L151.901 35.3781Z" fill="white"/>
<path d="M276.652 12.8918C276.733 13.1141 276.886 14.1098 276.886 14.1098H276.966C276.966 14.1098 277.108 13.1253 277.189 12.8712L277.969 10.4576H279.339L277.736 15.4698H276.387L275.636 13.2486C275.586 13.0767 275.382 12.2043 275.382 12.2043H275.341C275.341 12.2043 275.137 13.0767 275.087 13.2486L274.336 15.4698H273.017L271.384 10.4576H272.754L273.535 12.8712C273.615 13.1253 273.748 14.1098 273.748 14.1098H273.839C273.839 14.1098 274.002 13.116 274.073 12.8918L274.833 10.6202H275.888L276.649 12.8918H276.652Z" fill="white"/>
<path d="M305.074 12.8918C305.154 13.1141 305.307 14.1098 305.307 14.1098H305.388C305.388 14.1098 305.53 13.1253 305.61 12.8712L306.391 10.4576H307.76L306.157 15.4698H304.809L304.058 13.2486C304.007 13.0767 303.804 12.2043 303.804 12.2043H303.762C303.762 12.2043 303.559 13.0767 303.508 13.2486L302.757 15.4698H301.439L299.806 10.4576H301.175L301.956 12.8712C302.036 13.1253 302.169 14.1098 302.169 14.1098H302.26C302.26 14.1098 302.423 13.116 302.494 12.8918L303.254 10.6202H304.31L305.07 12.8918H305.074Z" fill="white"/>
<path d="M333.495 12.8918C333.575 13.1141 333.729 14.1098 333.729 14.1098H333.809C333.809 14.1098 333.951 13.1253 334.031 12.8712L334.812 10.4576H336.181L334.579 15.4698H333.23L332.479 13.2486C332.428 13.0767 332.225 12.2043 332.225 12.2043H332.184C332.184 12.2043 331.98 13.0767 331.93 13.2486L331.179 15.4698H329.86L328.227 10.4576H329.596L330.377 12.8712C330.458 13.1253 330.59 14.1098 330.59 14.1098H330.682C330.682 14.1098 330.844 13.116 330.915 12.8918L331.676 10.6202H332.731L333.491 12.8918H333.495Z" fill="white"/>
</svg>
