<svg width="179" height="179" viewBox="0 0 179 179" fill="none" xmlns="http://www.w3.org/2000/svg">
<path d="M65.3479 118.451C62.0876 121.711 56.971 123.473 50.5386 123.481C42.9423 123.491 34.2496 121.042 26.0616 116.585C8.36341 106.952 -1.12393 91.3652 4.46297 81.1004C7.27292 75.9375 13.3277 73.0879 21.5122 73.077C29.1084 73.0672 37.8012 75.5163 45.9892 79.9727C63.6874 89.6061 73.1747 105.193 67.5878 115.458C66.9866 116.563 66.2358 117.563 65.3479 118.451ZM10.5125 81.927C9.98529 82.4542 9.54516 83.0382 9.19769 83.6766C5.19371 91.0332 14.0963 103.935 28.6385 111.851C36.047 115.883 43.8226 118.099 50.5316 118.091C56.653 118.083 61.0294 116.232 62.8534 112.881C66.8574 105.524 57.9548 92.6221 43.4126 84.7068C36.0042 80.6743 28.2285 78.4583 21.5196 78.4667C16.5641 78.4737 12.7524 79.687 10.5125 81.927Z" fill="url(#paint0_linear_1_171)"/>
<path d="M115.458 67.588C105.193 73.1749 89.6064 63.6879 79.973 45.9894C75.5166 37.8014 73.0675 29.1086 73.0773 21.5124C73.0878 13.3279 75.9378 7.2731 81.1007 4.46315C91.3655 -1.12375 106.952 8.36325 116.586 26.0618C121.042 34.2498 123.491 42.9425 123.481 50.5388C123.473 56.9712 121.711 62.0874 118.451 65.348C117.563 66.2357 116.563 66.9864 115.458 67.588ZM78.4673 21.5194C78.4589 28.2287 80.675 36.004 84.7074 43.4125C92.6227 57.9546 105.525 66.8573 112.881 62.8533C116.233 61.0292 118.083 56.6529 118.091 50.5314C118.1 43.8221 115.884 36.0468 111.851 28.6383C103.936 14.0962 91.0334 5.19354 83.6773 9.19753C83.0388 9.545 82.4548 9.98512 81.9276 10.5123C79.6873 12.7523 78.474 16.5639 78.4673 21.5194Z" fill="url(#paint1_linear_1_171)"/>
<path d="M115.458 67.588C105.193 73.1749 89.6064 63.6879 79.973 45.9894C75.5166 37.8014 73.0675 29.1086 73.0773 21.5124C73.0878 13.3279 75.9378 7.2731 81.1007 4.46315C91.3655 -1.12375 106.952 8.36325 116.586 26.0618C121.042 34.2498 123.491 42.9425 123.481 50.5388C123.473 56.9712 121.711 62.0874 118.451 65.348C117.563 66.2357 116.563 66.9864 115.458 67.588ZM78.4673 21.5194C78.4589 28.2287 80.675 36.004 84.7074 43.4125C92.6227 57.9546 105.525 66.8573 112.881 62.8533C116.233 61.0292 118.083 56.6529 118.091 50.5314C118.1 43.8221 115.884 36.0468 111.851 28.6383C103.936 14.0962 91.0334 5.19354 83.6773 9.19753C83.0388 9.545 82.4548 9.98512 81.9276 10.5123C79.6873 12.7523 78.474 16.5639 78.4673 21.5194Z" fill="url(#paint2_linear_1_171)"/>
<path d="M98.6804 91.0577L75.0184 114.72C71.9172 117.821 70.078 121.706 69.5007 125.737L56.5028 138.735C54.5889 140.649 54.5889 143.752 56.5028 145.665L81.162 170.324C83.0759 172.238 86.1785 172.238 88.0921 170.324L94.9495 163.467C96.8497 161.567 99.4438 160.522 102.13 160.589C108.12 160.737 114.158 158.526 118.729 153.955L140.154 132.531L98.6804 91.0577Z" fill="url(#paint3_linear_1_171)"/>
<path d="M106.516 121.44C101.049 115.973 94.1096 112.878 86.9742 112.15L83.4437 115.68C78.9505 120.173 76.0865 126.038 75.3059 132.344L74.1827 141.42C74.4509 141.723 74.7264 142.023 75.0167 142.313L86.658 153.954C94.5491 161.845 106.808 162.705 115.651 156.534C122.936 144.151 117.147 132.071 106.516 121.44Z" fill="url(#paint4_linear_1_171)"/>
<path d="M135.989 136.696L118.73 153.955C114.158 158.527 108.12 160.738 102.13 160.588C99.4442 160.522 96.8487 161.568 94.9495 163.467L88.0917 170.324C86.1782 172.238 83.0752 172.238 81.1616 170.324L56.5032 145.666C54.5882 143.751 54.5882 140.648 56.5018 138.734L69.5003 125.736C70.078 121.706 71.9172 117.822 75.0188 114.72L98.6805 91.0584L129.783 122.16L135.996 115.947L135.989 115.957L135.989 136.696Z" fill="url(#paint5_linear_1_171)"/>
<path d="M155.968 122.378C153.259 121.154 150.379 120.431 147.466 120.207C142.647 119.837 138.1 117.829 134.682 114.411L109.435 89.1645L89.1631 109.437L114.409 134.683C117.827 138.101 119.836 142.649 120.205 147.468C120.43 150.379 121.155 153.259 122.379 155.968L155.968 122.378Z" fill="url(#paint6_linear_1_171)"/>
<path d="M3.31371 54.5681C-1.2378 59.1196 -1.08407 66.561 3.67311 70.8974C44.5384 108.146 89.3189 124.209 106.764 106.764C124.209 89.3189 108.146 44.5384 70.8974 3.67311C66.5614 -1.08407 59.1196 -1.2378 54.5681 3.31371L3.31371 54.5681Z" fill="url(#paint7_linear_1_171)"/>
<path d="M54.5681 3.31379L3.31371 54.5681C-1.2378 59.1196 -1.08407 66.5611 3.67311 70.8975C7.49599 74.382 11.3533 77.6809 15.219 80.7846L80.7845 15.2194C77.6808 11.3537 74.3819 7.49642 70.8974 3.67355C66.5614 -1.08399 59.1196 -1.23772 54.5681 3.31379Z" fill="url(#paint8_linear_1_171)"/>
<path d="M50.3471 57.4633L49.7602 59.9697C49.6002 60.7699 49.2267 61.3564 48.8536 61.7295C47.3072 63.2759 44.5875 62.6894 42.934 61.0363C41.814 59.9163 41.2275 58.3699 41.6543 56.6634L44.4274 45.3577C44.5875 44.6641 45.0143 44.0243 45.6007 43.4378C47.3072 41.7313 50.2937 40.7711 51.8935 42.3708L85.8108 76.2882C87.5173 77.9946 86.2909 80.9278 84.211 83.0077C82.1311 85.0876 79.198 86.3143 77.4915 84.6078L50.3471 57.4633Z" fill="url(#paint9_linear_1_171)"/>
<path d="M29.3818 91.264C61.9728 113.372 92.9451 120.583 106.764 106.764C120.583 92.9449 113.372 61.9726 91.2642 29.3817L29.3818 91.264Z" fill="url(#paint10_linear_1_171)"/>
<path d="M120.205 147.468C120.43 150.379 121.154 153.259 122.378 155.968L155.968 122.378C153.259 121.154 150.378 120.431 147.466 120.207C144.921 120.011 142.455 119.355 140.188 118.28L118.278 140.189C119.353 142.456 120.01 144.923 120.205 147.468Z" fill="url(#paint11_linear_1_171)"/>
<path d="M178.08 136.417L136.417 178.079C135.4 179.096 133.823 179.293 132.587 178.558L120.05 171.098C117.243 169.428 115.402 166.611 114.997 163.371C114.592 160.13 115.684 156.947 117.993 154.638L154.638 117.993C156.947 115.684 160.13 114.592 163.371 114.997C166.612 115.402 169.428 117.244 171.098 120.05L178.558 132.587C179.294 133.823 179.096 135.4 178.08 136.417Z" fill="url(#paint12_linear_1_171)"/>
<path d="M120.05 171.098L132.587 178.558C133.823 179.293 135.4 179.096 136.418 178.079L178.08 136.417C179.097 135.4 179.294 133.823 178.558 132.586L171.098 120.05C170.47 118.994 169.68 118.075 168.766 117.318L117.319 168.765C118.076 169.679 118.995 170.47 120.05 171.098Z" fill="url(#paint13_linear_1_171)"/>
<path d="M63.0345 132.203L56.5028 138.735C54.5889 140.649 54.5889 143.752 56.5028 145.665L81.162 170.324C83.0759 172.238 86.1785 172.238 88.0921 170.324L94.6238 163.793L63.0345 132.203Z" fill="url(#paint14_linear_1_171)"/>
<path d="M94.7356 169.228L56.8024 133.844C54.4329 131.634 51.0814 131.978 49.0594 133.873L49.0569 133.864L12.5301 170.388C9.35194 173.566 11.6024 179 16.0971 179H90.8853C96.009 179 98.4819 172.723 94.7356 169.228Z" fill="url(#paint15_linear_1_171)"/>
<path d="M90.2877 147.53C87.5321 150.32 83.0245 150.32 80.25 147.546L74.1538 141.45C64.358 131.631 63.4314 116.31 71.3765 105.45L80.6575 109.08C82.8725 109.765 85.0047 110.787 86.9741 112.15C88.0909 112.923 89.1551 113.804 90.1501 114.797C99.0938 123.697 99.2338 138.299 90.4533 147.362C90.3979 147.417 90.3435 147.475 90.2877 147.53Z" fill="url(#paint16_linear_1_171)"/>
<path d="M145.815 116.293C142.944 113.532 138.378 113.567 135.549 116.395L126.204 125.74C123.341 128.603 123.341 133.246 126.204 136.109C129.068 138.972 133.71 138.972 136.573 136.109L145.816 126.866C148.724 123.958 148.779 119.144 145.815 116.293Z" fill="url(#paint17_linear_1_171)"/>
<path d="M135.989 115.957L126.205 125.741C123.342 128.604 118.7 128.604 115.837 125.741C112.974 122.878 112.974 118.235 115.837 115.372L125.723 105.486C128.551 102.658 133.117 102.623 135.988 105.384C138.952 108.235 138.897 113.049 135.989 115.957Z" fill="url(#paint18_linear_1_171)"/>
<path d="M116.952 93.5191L109.047 101.425L107.641 100.018C102.692 95.0694 94.6677 95.0694 89.7189 100.018L106.585 83.1522C109.447 80.29 114.09 80.2882 116.952 83.1508C119.816 86.0141 119.815 90.6569 116.952 93.5191Z" fill="url(#paint19_linear_1_171)"/>
<path d="M128.121 103.088L115.837 115.372C112.974 118.236 108.331 118.236 105.468 115.372C102.605 112.509 102.605 107.867 105.468 105.004L117.855 92.6164C120.683 89.7882 125.249 89.7528 128.12 92.5146C131.084 95.3656 131.029 100.18 128.121 103.088Z" fill="url(#paint20_linear_1_171)"/>
<path d="M118.633 111.011L100.381 92.7578C95.7473 88.1245 88.2356 88.1245 83.6027 92.7578L74.1764 102.184C63.3273 113.033 63.3273 130.623 74.1764 141.472L75.3062 132.344C76.0868 126.038 78.9508 120.173 83.444 115.68L89.1605 109.963C91.2835 107.84 94.7259 107.84 96.849 109.963L104.954 118.068C108.731 121.845 114.856 121.845 118.633 118.068C120.582 116.119 120.582 112.959 118.633 111.011Z" fill="url(#paint21_linear_1_171)"/>
<defs>
<linearGradient id="paint0_linear_1_171" x1="30.0686" y1="104.903" x2="39.3841" y2="94.5717" gradientUnits="userSpaceOnUse">
<stop stop-color="#FBC56D"/>
<stop offset="1" stop-color="#C5715A"/>
</linearGradient>
<linearGradient id="paint1_linear_1_171" x1="82.7627" y1="43.6229" x2="118.5" y2="26.1777" gradientUnits="userSpaceOnUse">
<stop stop-color="#FBC56D"/>
<stop offset="1" stop-color="#C5715A"/>
</linearGradient>
<linearGradient id="paint2_linear_1_171" x1="104.322" y1="31.2674" x2="89.7559" y2="42.7847" gradientUnits="userSpaceOnUse">
<stop stop-color="#8C3D27" stop-opacity="0"/>
<stop offset="1" stop-color="#8C3D27"/>
</linearGradient>
<linearGradient id="paint3_linear_1_171" x1="97.4946" y1="90.5547" x2="97.4946" y2="164.293" gradientUnits="userSpaceOnUse">
<stop stop-color="#FFDFCF"/>
<stop offset="1" stop-color="#FFA78F"/>
</linearGradient>
<linearGradient id="paint4_linear_1_171" x1="113.669" y1="111.341" x2="87.9315" y2="154.522" gradientUnits="userSpaceOnUse">
<stop stop-color="#FFDFCF"/>
<stop offset="1" stop-color="#FFA78F"/>
</linearGradient>
<linearGradient id="paint5_linear_1_171" x1="93.0244" y1="138.188" x2="102.641" y2="128.571" gradientUnits="userSpaceOnUse">
<stop stop-color="#F89580" stop-opacity="0"/>
<stop offset="0.9972" stop-color="#C5715A"/>
</linearGradient>
<linearGradient id="paint6_linear_1_171" x1="99.2208" y1="138.061" x2="115.729" y2="122.732" gradientUnits="userSpaceOnUse">
<stop stop-color="#FEF0AE"/>
<stop offset="1" stop-color="#FBC56D"/>
</linearGradient>
<linearGradient id="paint7_linear_1_171" x1="53.9478" y1="81.7746" x2="85.2453" y2="50.4771" gradientUnits="userSpaceOnUse">
<stop stop-color="#FEF0AE"/>
<stop offset="1" stop-color="#FBC56D"/>
</linearGradient>
<linearGradient id="paint8_linear_1_171" x1="36.176" y1="36.0899" x2="28.9106" y2="27.8771" gradientUnits="userSpaceOnUse">
<stop stop-color="#F6A96C" stop-opacity="0"/>
<stop offset="0.9957" stop-color="#F6A96C" stop-opacity="0.996"/>
<stop offset="1" stop-color="#F6A96C"/>
</linearGradient>
<linearGradient id="paint9_linear_1_171" x1="68.6272" y1="59.5015" x2="59.1247" y2="69.0039" gradientUnits="userSpaceOnUse">
<stop stop-color="#FEF0AE"/>
<stop offset="1" stop-color="#FBC56D"/>
</linearGradient>
<linearGradient id="paint10_linear_1_171" x1="78.6391" y1="78.6683" x2="106.551" y2="106.58" gradientUnits="userSpaceOnUse">
<stop stop-color="#DC8758" stop-opacity="0"/>
<stop offset="0.9957" stop-color="#DC8758" stop-opacity="0.996"/>
<stop offset="1" stop-color="#DC8758"/>
</linearGradient>
<linearGradient id="paint11_linear_1_171" x1="131.845" y1="131.874" x2="139.239" y2="139.268" gradientUnits="userSpaceOnUse">
<stop stop-color="#DC8758" stop-opacity="0"/>
<stop offset="0.9957" stop-color="#DC8758" stop-opacity="0.996"/>
<stop offset="1" stop-color="#DC8758"/>
</linearGradient>
<linearGradient id="paint12_linear_1_171" x1="134.15" y1="136.56" x2="157.596" y2="154.169" gradientUnits="userSpaceOnUse">
<stop stop-color="#5A5A5A"/>
<stop offset="1" stop-color="#444444"/>
</linearGradient>
<linearGradient id="paint13_linear_1_171" x1="149.154" y1="149.183" x2="156.648" y2="156.677" gradientUnits="userSpaceOnUse">
<stop stop-color="#433F43" stop-opacity="0"/>
<stop offset="1" stop-color="#1A1A1A"/>
</linearGradient>
<linearGradient id="paint14_linear_1_171" x1="77.0043" y1="149.823" x2="73.3909" y2="153.436" gradientUnits="userSpaceOnUse">
<stop stop-color="#F89580" stop-opacity="0"/>
<stop offset="0.9972" stop-color="#C5715A"/>
</linearGradient>
<linearGradient id="paint15_linear_1_171" x1="53.7916" y1="157.578" x2="53.7916" y2="184.449" gradientUnits="userSpaceOnUse">
<stop stop-color="#FD4755"/>
<stop offset="1" stop-color="#A72B2B"/>
</linearGradient>
<linearGradient id="paint16_linear_1_171" x1="82.7842" y1="128.346" x2="104.361" y2="132.035" gradientUnits="userSpaceOnUse">
<stop stop-color="#F89580" stop-opacity="0"/>
<stop offset="0.9972" stop-color="#C5715A"/>
</linearGradient>
<linearGradient id="paint17_linear_1_171" x1="135.916" y1="105.35" x2="135.916" y2="154.204" gradientUnits="userSpaceOnUse">
<stop stop-color="#FFDFCF"/>
<stop offset="1" stop-color="#FFA78F"/>
</linearGradient>
<linearGradient id="paint18_linear_1_171" x1="120.524" y1="110.456" x2="131.905" y2="121.837" gradientUnits="userSpaceOnUse">
<stop stop-color="#FFDFCF"/>
<stop offset="1" stop-color="#FFA78F"/>
</linearGradient>
<linearGradient id="paint19_linear_1_171" x1="98.3923" y1="86.9235" x2="113.657" y2="102.188" gradientUnits="userSpaceOnUse">
<stop stop-color="#FFDFCF"/>
<stop offset="1" stop-color="#FFA78F"/>
</linearGradient>
<linearGradient id="paint20_linear_1_171" x1="111.407" y1="98.8388" x2="122.789" y2="110.22" gradientUnits="userSpaceOnUse">
<stop stop-color="#FFDFCF"/>
<stop offset="1" stop-color="#FFA78F"/>
</linearGradient>
<linearGradient id="paint21_linear_1_171" x1="99.9987" y1="103.193" x2="74.2615" y2="146.374" gradientUnits="userSpaceOnUse">
<stop stop-color="#FFDFCF"/>
<stop offset="1" stop-color="#FFA78F"/>
</linearGradient>
</defs>
</svg>
